<?xml version="1.0" encoding="UTF-8"?>
<svg viewBox="0 0 168 168" version="1.1" xmlns="http://www.w3.org/2000/svg" xmlns:xlink="http://www.w3.org/1999/xlink">
  <title>SD logo red</title>
  <desc></desc>
  <defs></defs>
  <g id="logo/red" stroke="none" stroke-width="1" fill="none" fill-rule="evenodd">
    <rect id="rect78" fill="#ffffff" x="" y="" width="168" height="168"></rect>
    <path d="M0,0 C55.9663866,0 111.932773,0 168,0 C168,55.9663866 168,111.932773 168,168 C112.033613,168 56.0672269,168 0,168 C0,112.033613 0,55.9663866 0,0 Z M41.1449102,142.7 C47.8850299,141.5 53.1161677,138.3 55.3293413,133.9 C58.3473054,127.8 57.1401198,120.8 52.411976,117 C49.4946108,114.6 45.6718563,113.3 36.5173653,111.3 C30.6826347,110 29.2742515,109.6 27.9664671,108.5 C25.2502994,106.3 26.0550898,102.5 29.5760479,100.7 C33.097006,98.9 38.6299401,99 42.4526946,100.9 C44.2634731,101.8 46.7784431,104 47.7844311,105.5 C48.1868263,106.1 48.5892216,106.6 48.6898204,106.6 C48.7904192,106.6 50.6011976,105.3 52.7137725,103.8 C56.2347305,101.2 56.5365269,100.9 56.2347305,100.5 C55.6311377,99.4 51.0035928,95.2 49.1928144,94.1 C44.7664671,91.5 42.1508982,90.9 36.2155689,90.9 C32.1916168,90.9 31.3868263,91 29.4754491,91.5 C23.942515,92.9 19.9185629,95.8 17.9065868,99.8 C15.1904192,105.1 16.1964072,112 20.1197605,115.5 C22.9365269,118 25.7532934,119.1 34.605988,121.1 C43.6598802,123.1 45.2694611,123.8 46.2754491,125.9 C47.1808383,127.9 46.6778443,130.1 45.0682635,131.8 C43.0562874,133.8 39.3341317,134.7 34.8071856,134.2 C29.4754491,133.6 25.3508982,131.6 22.7353293,128.2 C22.2323353,127.5 21.6287425,127 21.5281437,127.1 C21.4275449,127.2 19.5161677,128.4 17.5041916,129.8 L13.6814371,132.4 L14.1844311,133.3 C16.9005988,137.9 23.1377246,141.6 29.8778443,142.7 C32.594012,143.1 38.4287425,143.1 41.1449102,142.7 Z M83.3964072,141.9 C86.1125749,141.2 88.4263473,139.9 90.4383234,137.9 L92.148503,136.2 L94.3616766,138.4 C96.8766467,141 99.0898204,142.2 101.705389,142.5 L103.214371,142.7 L103.214371,140.5 C103.214371,138.1 103.214371,138.2 101.705389,138 C100.397605,137.8 98.788024,136.6 96.8766467,134.4 C95.2670659,132.5 95.1664671,132.3 95.3676647,131.7 C95.4682635,131.3 96.0718563,130.2 96.4742515,129.1 C97.3796407,127.1 98.0838323,124.1 98.3856287,121.2 L98.5868263,119.7 L96.2730539,119.7 C93.657485,119.7 93.657485,119.7 93.657485,121.5 C93.657485,122.8 93.3556886,124.6 92.651497,126.9 L92.148503,128.6 L90.9413174,127.1 C89.5329341,125.3 81.5856287,113.6 81.5856287,113.3 C81.5856287,113.2 82.2898204,112.7 83.0946108,112.1 C83.8994012,111.6 85.6095808,110.2 86.8167665,109 C88.5269461,107.3 89.2311377,106.5 89.9353293,105 C92.4502994,99.8 90.9413174,94.4 86.3137725,92.3 C81.2838323,89.9 75.0467066,91.5 72.5317365,95.7 C70.2179641,99.5 71.0227545,105.6 74.342515,110.4 C74.7449102,111 75.0467066,111.6 74.9461078,111.7 C74.845509,111.8 73.7389222,112.6 72.4311377,113.4 C71.1233533,114.2 69.1113772,115.9 68.0047904,117.1 C64.4838323,120.6 63.0754491,123.5 62.8742515,127.8 C62.7736527,129.1 62.8742515,130.7 63.0754491,131.5 C63.7796407,134.8 66.4958084,138.5 69.6143713,140.4 C71.2239521,141.4 73.6383234,142.2 75.6502994,142.5 C77.5616766,142.7 81.2838323,142.4 83.3964072,141.9 Z M76.4550898,138 C73.1353293,137.3 70.2179641,135.3 68.8095808,132.7 C67.9041916,131 67.6023952,127.9 68.1053892,125.8 C68.8095808,122.8 71.4251497,119.6 75.348503,116.9 C76.5556886,116.1 77.5616766,115.4 77.6622754,115.4 C77.7628743,115.4 79.5736527,118 81.6862275,121.2 C83.7988024,124.4 86.5149701,128.3 87.6215569,129.9 L89.7341317,132.8 L88.1245509,134.3 C86.4143713,135.9 84.4023952,137 82.3904192,137.6 C80.7808383,138.1 77.6622754,138.3 76.4550898,138 Z M78.1652695,107.5 C76.2538922,104 75.9520958,103.3 75.9520958,101 C75.9520958,99.1 76.0526946,98.7 76.6562874,97.7 C77.5616766,96.2 78.6682635,95.6 80.5796407,95.4 C82.6922156,95.2 83.6982036,95.5 84.7041916,96.3 C86.1125749,97.5 86.6155689,98.7 86.4143713,100.7 C86.3137725,102.7 85.7101796,104 84.2011976,105.6 C83.1952096,106.7 79.8754491,109 79.2718563,109 C79.0706587,109 78.5676647,108.3 78.1652695,107.5 Z M135.808383,141.1 C140.335329,139.9 144.057485,137.6 146.572455,134.6 C148.182036,132.7 149.992814,128.9 150.797605,126 C152.809581,118.4 151.803593,108.7 148.483832,102.7 C145.767665,97.9 141.743713,94.7 136.311377,93 C133.092216,92 131.08024,91.9 119.813174,91.9 L109.350898,92 L109.250299,116.9 L109.149701,141.8 L121.322156,141.7 L133.494611,141.6 L135.808383,141.1 Z M118.807186,116.9 L118.807186,100.6 L124.541317,100.7 C130.778443,100.8 131.88503,101 134.601198,102.4 C136.512575,103.4 138.725749,105.6 139.731737,107.6 C142.548503,113.4 142.246707,124 139.128144,128.5 C136.512575,132.2 132.991617,133.3 123.937725,133.3 L118.807186,133.3 L118.807186,116.9 Z" id="path76" fill="#EE0000" fill-rule="nonzero"></path>
  </g>
</svg>